<?xml version="1.0" encoding="iso-8859-1"?>
<!-- Uploaded to: SVG Repo, www.svgrepo.com, Generator: SVG Repo Mixer Tools -->
<!DOCTYPE svg PUBLIC "-//W3C//DTD SVG 1.1//EN" "http://www.w3.org/Graphics/SVG/1.1/DTD/svg11.dtd">
<svg fill="#000000" version="1.1" id="Capa_1" xmlns="http://www.w3.org/2000/svg" xmlns:xlink="http://www.w3.org/1999/xlink" 
	 width="800px" height="800px" viewBox="0 0 32.002 32.002"
	 xml:space="preserve">
<g>
	<g>
		<path d="M12.75,15.685c0.036-1.069-0.497-2.093-1.641-2.158c-2.03,0.061-4.005,3.159-4.084,3.827
			c0.143,0.1,3.164-2.848,3.729-2.839C11.319,14.519,12.278,14.869,12.75,15.685z"/>
		<path d="M11.202,17.247c0.586,0.013,1.821,1.796,1.727,1.291c-0.096-0.504-0.3-2.52-1.725-2.375
			c-1.426,0.146-3.228,3.517-3.158,4.121C8.333,20.15,10.616,17.234,11.202,17.247z"/>
		<path d="M11.247,19.702c-1.178,0.149-2.492,2.61-2.302,3.214c0.329-0.225,1.938-2.293,2.789-2.34s1.851,0.96,1.824,0.602
			C13.532,20.818,12.424,19.552,11.247,19.702z"/>
		<path d="M19.254,15.684c0.472-0.815,1.431-1.166,1.994-1.172c0.564-0.006,3.588,2.938,3.729,2.841
			c-0.079-0.67-2.055-3.768-4.084-3.829C19.75,13.591,19.215,14.614,19.254,15.684z"/>
		<path d="M20.639,16.162c-1.426-0.145-1.631,1.871-1.725,2.375c-0.097,0.505,1.141-1.278,1.728-1.291
			c0.586-0.014,2.866,2.904,3.155,3.037C23.867,19.678,22.064,16.308,20.639,16.162z"/>
		<path d="M20.414,19.701c-1.179-0.15-2.285,1.117-2.312,1.476s0.973-0.646,1.823-0.602c0.852,0.046,2.459,2.114,2.789,2.34
			C22.906,22.312,21.59,19.852,20.414,19.701z"/>
		<path d="M12.983,11.261c0,0,0.448-0.92,0.718-1.174c-0.951-0.444-1.47-1.786-1.47-1.786s3.844-3.343,0.892-5.961
			c0.404,1.863-0.571,3.18-1.446,2.941C10.801,5.044,10.562,0.572,12.278,0C7.514,0,9.394,5.883,9.943,7.011
			C10.492,8.139,12.983,11.261,12.983,11.261z"/>
		<path d="M19.496,8.301c0,0-0.52,1.342-1.472,1.786c0.271,0.254,0.719,1.174,0.719,1.174s2.491-3.122,3.04-4.25
			C22.334,5.883,24.213,0,19.448,0c1.718,0.572,1.478,5.044,0.603,5.281c-0.875,0.238-1.852-1.078-1.445-2.941
			C15.651,4.958,19.496,8.301,19.496,8.301z"/>
		<path d="M18.461,30.879c-0.461-0.033-1.269-1.275-1.334-2.693c-0.065-1.42-0.336-5.435,0.317-7.713c0,0,1.155-5.361,1.072-6.418
			c-1.087-1.216-1.087-1.216-1.087-1.216s1.113,0.285,1.091-0.736s-1.017-2.328-1.897-2.31c0.141-0.224,1.478-1.698,0-2.005
			c0.391,0.863-0.445,1.727-0.809,1.671s-0.863-0.725-1.03-1.671c-1.114,0.641,0.066,1.579,0.307,1.81
			c-0.947,0.177-1.925,1.597-1.82,2.357c0.104,0.762,1.288,0.805,1.288,0.805s-0.35,0.405-1.288,1.23
			c0.057,0.725,0.831,5.217,0.964,6.2c0.001,0.006,0.005,0.012,0.006,0.018c1.38,8.863,2.714,10.791,3.507,11.469
			c1.094,0.947,4.297-0.226,1.647-2.811C19.77,29.988,19.268,30.925,18.461,30.879z"/>
	</g>
</g>
</svg>